<?xml version="1.0" encoding="UTF-8" standalone="no"?><!DOCTYPE svg PUBLIC "-//W3C//DTD SVG 1.1//EN" "http://www.w3.org/Graphics/SVG/1.1/DTD/svg11.dtd"><svg width="100%" height="100%" viewBox="0 0 1186 175" version="1.1" xmlns="http://www.w3.org/2000/svg" xmlns:xlink="http://www.w3.org/1999/xlink" xml:space="preserve" xmlns:serif="http://www.serif.com/" style="fill-rule:evenodd;clip-rule:evenodd;stroke-linejoin:round;stroke-miterlimit:2;"><g id="YOTTA-XPS-SCHEMA" serif:id="YOTTA XPS SCHEMA"><path d="M1174.31,10.03l-1.995,0l0.829,-4.254l2.771,0c0.383,0 0.737,0.025 1.066,0.084c0.338,0.058 0.625,0.166 0.871,0.329c0.238,0.162 0.417,0.375 0.533,0.641c0.105,0.267 0.117,0.621 0.03,1.059c-0.1,0.512 -0.284,0.921 -0.55,1.212c-0.271,0.296 -0.584,0.509 -0.959,0.642c-0.366,0.137 -0.779,0.217 -1.233,0.246c-0.446,0.029 -0.904,0.041 -1.363,0.041m3.121,0.93c0.4,-0.159 0.779,-0.384 1.109,-0.659c0.341,-0.275 0.633,-0.616 0.879,-1.012c0.233,-0.4 0.408,-0.867 0.516,-1.4c0.213,-1.104 0.055,-1.95 -0.466,-2.529c-0.529,-0.584 -1.479,-0.871 -2.875,-0.871l-4.713,-0l-2.408,12.287l1.517,0l1.07,-5.458l2.538,-0l2.396,5.458l1.771,0l-2.596,-5.458c0.437,-0.075 0.85,-0.196 1.262,-0.358m4.688,3.245c-0.667,1.105 -1.488,2.067 -2.45,2.884c-0.959,0.821 -2.029,1.466 -3.225,1.946c-1.184,0.475 -2.417,0.716 -3.692,0.716c-1.3,0 -2.45,-0.241 -3.45,-0.716c-1,-0.48 -1.825,-1.125 -2.462,-1.946c-0.638,-0.817 -1.075,-1.779 -1.305,-2.884c-0.237,-1.104 -0.22,-2.295 0.025,-3.575c0.255,-1.275 0.705,-2.466 1.371,-3.57c0.667,-1.109 1.479,-2.067 2.438,-2.888c0.962,-0.821 2.037,-1.467 3.225,-1.942c1.187,-0.475 2.433,-0.712 3.729,-0.712c1.275,-0 2.412,0.237 3.412,0.712c1.009,0.475 1.825,1.121 2.467,1.942c0.633,0.821 1.079,1.779 1.317,2.888c0.246,1.104 0.237,2.295 -0.013,3.57c-0.254,1.28 -0.712,2.471 -1.387,3.575m3.046,-7.745c-0.288,-1.296 -0.813,-2.425 -1.571,-3.388c-0.775,-0.958 -1.746,-1.717 -2.934,-2.254c-1.191,-0.546 -2.537,-0.817 -4.037,-0.817c-1.513,0 -2.967,0.271 -4.371,0.817c-1.396,0.537 -2.667,1.296 -3.812,2.254c-1.142,0.963 -2.109,2.092 -2.9,3.388c-0.8,1.295 -1.346,2.687 -1.634,4.17c-0.296,1.509 -0.296,2.905 -0.008,4.188c0.292,1.287 0.817,2.408 1.583,3.358c0.771,0.954 1.75,1.7 2.934,2.242c1.187,0.546 2.537,0.817 4.05,0.817c1.495,-0 2.954,-0.271 4.358,-0.817c1.392,-0.542 2.662,-1.288 3.812,-2.242c1.134,-0.95 2.096,-2.071 2.896,-3.358c0.792,-1.283 1.338,-2.679 1.629,-4.188c0.296,-1.483 0.296,-2.875 0.005,-4.17" style="fill:#fff;fill-rule:nonzero;"/><path d="M149.289,72.107l53.8,-69.662l-71.421,0.191l-19.287,24.892l36.908,44.579Z" style="fill:#fff;fill-rule:nonzero;"/><path d="M137.371,87.555l-70.313,-84.921l-67.058,0l68.883,83.071l-67.008,86.771l69.917,-0l65.579,-84.921Z" style="fill:#e10600;fill-rule:nonzero;"/><path d="M953.72,0l-44.167,0l-15.991,20.163l-9.959,-20.163l-40.42,0l25.47,51.563l-42.166,53.154l44.162,-0l14.95,-18.846l8.859,17.933l0.454,0.913l40.412,-0l-24.816,-50.246l43.212,-54.471Z" style="fill:#fff;fill-rule:nonzero;"/><path d="M990.284,26.9l10.017,0c4.646,0 7.95,1.25 10.104,3.821c2.154,2.575 2.829,5.729 2.054,9.65c-0.766,3.934 -2.716,7.125 -5.95,9.763c-3.354,2.671 -7.246,3.971 -11.891,3.971l-9.663,-0l5.329,-27.205Zm47.634,-16.15l-0.005,-0.008c-6.025,-7.125 -15.9,-10.742 -29.354,-10.742l-44.654,0l-20.508,104.717l34.108,0l5.117,-26.133l10.833,-0c13.404,-0 24.633,-3.588 33.371,-10.654c8.667,-7.067 14.237,-16.65 16.554,-28.496c2.317,-11.825 0.475,-21.475 -5.462,-28.684" style="fill:#fff;fill-rule:nonzero;"/><path d="M362.383,2.444l-11.004,56.179l49.846,-0l-22.296,113.854l58.475,0l22.296,-113.854l49.854,-0l11.004,-56.179l-158.175,-0Z" style="fill:#fff;fill-rule:nonzero;"/><path d="M261.268,52.358c9.221,0 17.221,3.55 22.525,9.996c5.459,6.634 7.442,15.509 5.584,24.988c-3.829,19.541 -22.829,35.437 -42.363,35.437c-9.216,0 -17.216,-3.55 -22.516,-9.996c-5.463,-6.629 -7.446,-15.504 -5.592,-24.987c3.829,-19.542 22.833,-35.438 42.362,-35.438m65.867,-26.77c-13.287,-16.138 -33.237,-25.03 -56.183,-25.03c-47.863,0 -94.429,38.934 -103.8,86.784c-4.609,23.55 0.366,45.646 14,62.212c13.287,16.138 33.237,25.025 56.179,25.025c47.862,0 94.429,-38.929 103.8,-86.783c4.608,-23.546 -0.363,-45.638 -13.996,-62.208" style="fill:#fff;fill-rule:nonzero;"/><path d="M711.516,2.444l-181.491,-0l-10.996,56.179l49.779,-0l-22.3,113.854l58.708,0l22.3,-113.854l52.942,-0l31.058,-56.179Z" style="fill:#fff;fill-rule:nonzero;"/><path d="M751.95,99.797l-18.992,-0l15.142,-28.954l3.85,28.954Zm45.658,-96.342l-0.162,-0.996l-72.158,0l-93.992,170.017l63.417,0.004l13.408,-25.458l50.158,-0l3.321,25.458l63.238,0l-27.23,-169.025Z" style="fill:#fff;fill-rule:nonzero;"/><path d="M1040.74,68.685l33.204,0c-1.312,6.071 6.904,8.45 15.35,8.45c9.404,0 17.85,-1.546 17.85,-5.95c0,-0.95 0.596,-4.642 -8.683,-5.471l-7.975,-0.954c-9.042,-0.717 -37.846,-3.212 -37.846,-25.704c0,-24.875 23.325,-38.921 57.604,-38.921c32.604,0 53.192,13.45 41.171,37.846l-32.008,-0c0.591,-2.379 -1.904,-8.213 -14.642,-8.213c-9.162,0 -14.758,2.621 -14.758,6.43c-0,0.833 -0,3.808 6.904,4.641l5.237,0.713c14.755,2.5 43.321,3.212 43.321,25.941c0,30.234 -28.8,39.275 -61.65,39.275c-32.962,0 -53.671,-9.041 -43.079,-38.083" style="fill:#5cc3ff;fill-rule:nonzero;"/><g transform="matrix(0.999989,0,0,1,1.20114e-07,0)"><text x="839.521px" y="172.327px" style="font-family:'IntegralCF-HeavyOblique', 'Integral CF';font-weight:900;font-style:italic;font-size:75.689px;fill:#5cc3ff;">rel<tspan x="1005.95px " y="172.327px ">a</tspan>is</text></g></g></svg>