<?xml version="1.0" encoding="UTF-8" standalone="no"?><!DOCTYPE svg PUBLIC "-//W3C//DTD SVG 1.1//EN" "http://www.w3.org/Graphics/SVG/1.1/DTD/svg11.dtd"><svg width="100%" height="100%" viewBox="0 0 1103 178" version="1.1" xmlns="http://www.w3.org/2000/svg" xmlns:xlink="http://www.w3.org/1999/xlink" xml:space="preserve" xmlns:serif="http://www.serif.com/" style="fill-rule:evenodd;clip-rule:evenodd;stroke-linejoin:round;stroke-miterlimit:2;"><g id="YOTTA-XP-SCHEMA" serif:id="YOTTA XP SCHEMA"><path d="M131.978,2.116l-19.655,25.371l37.625,45.441l54.83,-71.008l-72.8,0.196Z" style="fill:#fff;fill-rule:nonzero;"/><path d="M0,2.116l70.208,84.667l-68.3,88.445l71.267,0l66.833,-86.558l-71.666,-86.554l-68.342,-0Z" style="fill:#e10600;fill-rule:nonzero;"/><path d="M369.356,1.921l-11.221,57.258l50.813,0l-22.733,116.05l59.604,0l22.729,-116.05l50.812,0l11.213,-57.258l-161.217,-0Z" style="fill:#fff;fill-rule:nonzero;"/><path d="M266.296,52.796c9.396,-0 17.55,3.617 22.958,10.187c5.563,6.763 7.584,15.805 5.688,25.467c-3.904,19.921 -23.271,36.125 -43.175,36.125c-9.392,0 -17.546,-3.621 -22.954,-10.192c-5.563,-6.758 -7.584,-15.804 -5.696,-25.47l-0,0.004c3.9,-19.917 23.275,-36.121 43.179,-36.121m67.129,-27.288c-13.542,-16.45 -33.875,-25.508 -57.262,-25.508c-48.784,0 -96.242,39.679 -105.792,88.45c-4.7,24.004 0.367,46.525 14.267,63.413c13.537,16.445 33.875,25.504 57.262,25.504c48.783,-0 96.242,-39.679 105.792,-88.45c4.7,-24 -0.367,-46.521 -14.267,-63.409" style="fill:#fff;fill-rule:nonzero;"/><path d="M725.207,1.919l-184.984,0l-11.212,57.263l50.742,-0l-22.725,116.046l59.833,-0l22.725,-116.046l53.962,-0l31.659,-57.263Z" style="fill:#fff;fill-rule:nonzero;"/><path d="M766.418,101.148l-19.354,-0l15.433,-29.513l3.921,29.513Zm46.537,-98.196l-0.162,-1.017l-73.55,0l-95.8,173.288l64.633,0.008l13.671,-25.95l51.121,0l3.383,25.95l64.459,0l-27.755,-172.279Z" style="fill:#fff;fill-rule:nonzero;"/><path d="M972.993,2.116l-45.92,0l-16.63,20.204l-10.35,-20.204l-42.029,0l26.479,51.667l-43.833,53.262l45.913,0l15.545,-18.883l9.209,17.971l0.471,0.912l42.016,0l-25.8,-50.345l44.929,-54.584Z" style="fill:#e10600;fill-rule:nonzero;"/><path d="M1011.07,30.559l8.384,-0c3.879,-0 6.641,1.008 8.445,3.079c1.8,2.075 2.363,4.621 1.717,7.779c-0.637,3.171 -2.271,5.746 -4.975,7.871c-2.804,2.154 -6.054,3.204 -9.942,3.204l-8.079,0l4.45,-21.933Zm47.317,-17.671l-0.004,-0.008c-6.254,-7.142 -16.521,-10.763 -30.504,-10.763l-46.409,0l-21.316,104.925l35.445,0l5.321,-26.183l11.263,-0c13.925,-0 25.596,-3.592 34.679,-10.675c9.004,-7.079 14.796,-16.688 17.208,-28.554c2.404,-11.846 0.492,-21.517 -5.683,-28.742" style="fill:#e10600;fill-rule:nonzero;"/><path d="M1091.4,12.342l-2.033,-0l0.846,-4.338l2.825,0c0.387,0 0.75,0.025 1.087,0.088c0.342,0.058 0.638,0.171 0.888,0.337c0.246,0.163 0.425,0.379 0.542,0.65c0.104,0.275 0.12,0.634 0.033,1.084c-0.104,0.52 -0.292,0.933 -0.567,1.233c-0.271,0.3 -0.591,0.521 -0.971,0.654c-0.375,0.138 -0.8,0.221 -1.258,0.25c-0.454,0.029 -0.925,0.042 -1.392,0.042m3.184,0.946c0.408,-0.163 0.791,-0.388 1.129,-0.671c0.346,-0.279 0.642,-0.625 0.896,-1.034c0.241,-0.404 0.421,-0.883 0.525,-1.42c0.221,-1.13 0.058,-1.988 -0.471,-2.584c-0.538,-0.591 -1.513,-0.883 -2.933,-0.883l-4.805,-0l-2.454,12.521l1.546,-0l1.092,-5.563l2.587,0l2.438,5.563l1.808,-0l-2.646,-5.563c0.446,-0.079 0.871,-0.2 1.288,-0.366m4.779,3.308c-0.683,1.129 -1.521,2.108 -2.496,2.942c-0.983,0.833 -2.075,1.495 -3.292,1.983c-1.208,0.483 -2.458,0.725 -3.762,0.725c-1.317,-0 -2.492,-0.242 -3.517,-0.725c-1.016,-0.488 -1.858,-1.15 -2.508,-1.983c-0.65,-0.834 -1.096,-1.813 -1.329,-2.942c-0.242,-1.125 -0.225,-2.342 0.029,-3.642c0.254,-1.3 0.712,-2.516 1.396,-3.641c0.675,-1.125 1.508,-2.105 2.483,-2.942c0.979,-0.833 2.075,-1.496 3.288,-1.979c1.208,-0.484 2.479,-0.729 3.8,-0.729c1.3,-0 2.458,0.245 3.479,0.729c1.025,0.483 1.854,1.146 2.512,1.979c0.646,0.837 1.1,1.817 1.342,2.942c0.25,1.125 0.242,2.341 -0.013,3.641c-0.258,1.3 -0.725,2.517 -1.412,3.642m3.104,-7.896c-0.292,-1.317 -0.829,-2.467 -1.604,-3.45c-0.788,-0.979 -1.779,-1.746 -2.988,-2.3c-1.212,-0.554 -2.587,-0.833 -4.12,-0.833c-1.538,-0 -3.017,0.279 -4.45,0.833c-1.425,0.554 -2.717,1.321 -3.888,2.3c-1.158,0.983 -2.146,2.133 -2.958,3.45c-0.813,1.321 -1.367,2.742 -1.663,4.254c-0.3,1.538 -0.3,2.959 -0.004,4.267c0.292,1.312 0.833,2.454 1.613,3.425c0.783,0.971 1.783,1.733 2.987,2.287c1.217,0.55 2.592,0.83 4.125,0.83c1.529,-0 3.013,-0.28 4.446,-0.83c1.421,-0.554 2.717,-1.316 3.883,-2.287c1.159,-0.971 2.146,-2.113 2.954,-3.425c0.809,-1.308 1.363,-2.729 1.663,-4.267c0.3,-1.512 0.304,-2.933 0.004,-4.254" style="fill:#fff;fill-rule:nonzero;"/></g></svg>