<?xml version="1.0" encoding="UTF-8" standalone="no"?><!DOCTYPE svg PUBLIC "-//W3C//DTD SVG 1.1//EN" "http://www.w3.org/Graphics/SVG/1.1/DTD/svg11.dtd"><svg width="100%" height="100%" viewBox="0 0 1234 183" version="1.1" xmlns="http://www.w3.org/2000/svg" xmlns:xlink="http://www.w3.org/1999/xlink" xml:space="preserve" xmlns:serif="http://www.serif.com/" style="fill-rule:evenodd;clip-rule:evenodd;stroke-linejoin:round;stroke-miterlimit:2;"><g id="YOTTA-XPS-SCHEMA" serif:id="YOTTA XPS SCHEMA"><path d="M155.054,75.836l55.877,-72.357l-74.187,0.201l-20.026,25.854l38.336,46.302Z" style="fill:#fff;fill-rule:nonzero;"/><path d="M0,3.681l71.537,86.276l-69.591,90.124l72.618,0l68.112,-88.203l-73.03,-88.197l-69.646,-0Z" style="fill:#e10600;fill-rule:nonzero;"/><path d="M944.683,0.942l-16.611,20.941l-10.344,-20.941l-41.982,0l26.457,53.559l-43.802,55.203l45.874,-0l15.53,-19.573l9.197,18.627l0.473,0.946l41.977,-0l-25.779,-52.186l44.884,-56.576l-45.874,0Z" style="fill:#fff;fill-rule:nonzero;"/><path d="M1028.53,28.883l10.4,0c4.828,0 8.263,1.298 10.496,3.973c2.238,2.665 2.937,5.944 2.137,10.018c-0.795,4.083 -2.821,7.402 -6.181,10.138c-3.485,2.776 -7.528,4.124 -12.346,4.124l-10.042,-0l5.536,-28.253Zm49.47,-16.776l-0.005,-0.01c-6.251,-7.398 -16.51,-11.155 -30.485,-11.155l-46.377,0l-21.303,108.762l35.424,-0l5.316,-27.142l11.249,0c13.926,0 25.588,-3.721 34.665,-11.063c8.997,-7.338 14.78,-17.295 17.194,-29.601c2.404,-12.281 0.493,-22.303 -5.678,-29.791" style="fill:#fff;fill-rule:nonzero;"/><path d="M1221.57,10.415l-2.077,-0l0.87,-4.42l2.871,-0c0.398,-0 0.77,0.025 1.112,0.09c0.347,0.055 0.648,0.171 0.9,0.342c0.251,0.166 0.432,0.387 0.553,0.664c0.111,0.276 0.126,0.644 0.035,1.101c-0.105,0.533 -0.296,0.956 -0.578,1.262c-0.277,0.302 -0.604,0.528 -0.991,0.664c-0.377,0.141 -0.809,0.222 -1.277,0.257c-0.473,0.025 -0.941,0.04 -1.418,0.04m3.243,0.966c0.418,-0.166 0.805,-0.398 1.152,-0.684c0.352,-0.282 0.654,-0.639 0.91,-1.051c0.247,-0.418 0.428,-0.906 0.533,-1.454c0.227,-1.146 0.061,-2.027 -0.482,-2.63c-0.544,-0.598 -1.534,-0.905 -2.983,-0.905l-4.898,-0l-2.499,12.768l1.574,0l1.111,-5.672l2.64,-0l2.485,5.672l1.84,0l-2.695,-5.672c0.452,-0.081 0.885,-0.207 1.312,-0.372m4.868,3.369c-0.694,1.147 -1.549,2.147 -2.549,2.997c-0.996,0.85 -2.107,1.524 -3.35,2.022c-1.232,0.493 -2.509,0.739 -3.827,0.739c-1.352,0 -2.544,-0.246 -3.585,-0.739c-1.036,-0.498 -1.896,-1.172 -2.56,-2.022c-0.664,-0.85 -1.116,-1.85 -1.353,-2.997c-0.246,-1.147 -0.231,-2.384 0.025,-3.711c0.262,-1.323 0.735,-2.56 1.429,-3.707c0.684,-1.151 1.528,-2.147 2.524,-3.002c1.001,-0.85 2.117,-1.524 3.354,-2.017c1.233,-0.493 2.525,-0.739 3.873,-0.739c1.322,0 2.504,0.246 3.545,0.739c1.046,0.493 1.891,1.167 2.555,2.017c0.664,0.855 1.131,1.851 1.368,3.002c0.256,1.147 0.246,2.384 -0.01,3.707c-0.257,1.327 -0.735,2.564 -1.439,3.711m3.164,-8.041c-0.297,-1.348 -0.845,-2.52 -1.635,-3.521c-0.799,-0.995 -1.815,-1.78 -3.042,-2.343c-1.242,-0.563 -2.641,-0.845 -4.194,-0.845c-1.57,0 -3.083,0.282 -4.542,0.845c-1.448,0.563 -2.771,1.348 -3.962,2.343c-1.177,1.001 -2.183,2.173 -3.013,3.521c-0.83,1.342 -1.393,2.786 -1.695,4.33c-0.306,1.569 -0.306,3.017 -0.005,4.35c0.302,1.337 0.85,2.499 1.645,3.485c0.8,0.99 1.815,1.77 3.042,2.333c1.238,0.563 2.641,0.845 4.205,0.845c1.564,-0 3.072,-0.282 4.531,-0.845c1.448,-0.563 2.766,-1.343 3.958,-2.333c1.176,-0.986 2.182,-2.148 3.007,-3.485c0.825,-1.333 1.393,-2.781 1.7,-4.35c0.301,-1.544 0.301,-2.988 -0,-4.33" style="fill:#fff;fill-rule:nonzero;"/><path d="M376.377,3.481l-11.426,58.35l51.768,0l-23.158,118.251l60.735,0l23.163,-118.251l51.778,0l11.426,-58.35l-164.286,-0Z" style="fill:#fff;fill-rule:nonzero;"/><path d="M271.358,55.324c9.57,0 17.883,3.687 23.395,10.38c5.667,6.89 7.724,16.108 5.798,25.955c-3.973,20.296 -23.711,36.807 -43.998,36.807c-9.57,-0 -17.878,-3.687 -23.39,-10.385c-5.672,-6.885 -7.734,-16.103 -5.803,-25.95c3.973,-20.296 23.711,-36.807 43.998,-36.807m68.409,-27.805c-13.8,-16.761 -34.519,-25.994 -58.351,-25.994c-49.716,-0 -98.08,40.433 -107.806,90.134c-4.792,24.455 0.378,47.408 14.539,64.617c13.795,16.756 34.514,25.989 58.346,25.989c49.711,0 98.08,-40.433 107.806,-90.134c4.787,-24.455 -0.373,-47.403 -14.534,-64.612" style="fill:#fff;fill-rule:nonzero;"/><path d="M738.997,3.481l-188.5,-0l-11.426,58.35l51.702,0l-23.153,118.251l60.971,0l23.153,-118.251l54.992,0l32.261,-58.35Z" style="fill:#fff;fill-rule:nonzero;"/><path d="M780.991,104.595l-19.723,0l15.725,-30.068l3.998,30.068Zm47.423,-100.061l-0.171,-1.041l-74.951,0l-97.617,176.587l65.864,0.005l13.93,-26.443l52.095,0l3.45,26.443l65.678,-0l-28.278,-175.551Z" style="fill:#fff;fill-rule:nonzero;"/><path d="M1080.94,72.283l34.483,-0c-1.358,6.301 7.171,8.775 15.947,8.775c9.766,0 18.542,-1.609 18.542,-6.18c-0,-0.986 0.613,-4.818 -9.027,-5.683l-8.283,-0.991c-9.394,-0.739 -39.306,-3.339 -39.306,-26.699c-0,-25.833 24.229,-40.417 59.829,-40.417c33.865,-0 55.248,13.965 42.761,39.306l-33.246,0c0.618,-2.474 -1.976,-8.529 -15.203,-8.529c-9.519,-0 -15.328,2.721 -15.328,6.673c0,0.865 0,3.958 7.171,4.823l5.442,0.739c15.318,2.595 44.989,3.34 44.989,26.945c-0,31.401 -29.912,40.79 -64.034,40.79c-34.232,0 -55.741,-9.389 -44.737,-39.552" style="fill:#09af89;fill-rule:nonzero;"/></g></svg>